<svg width="38" height="38" viewBox="0 0 38 38" fill="none" xmlns="http://www.w3.org/2000/svg">
    <g clip-path="url(#clip0_9_7)">
        <g filter="url(#filter0_f_9_7)">
            <path d="M19 33.5C10.992 33.5 4.5 27.008 4.5 19C4.5 10.992 10.992 4.5 19 4.5C27.008 4.5 33.5 10.992 33.5 19C33.5 27.008 27.008 33.5 19 33.5ZM19 28.5C21.5196 28.5 23.9359 27.4991 25.7175 25.7175C27.4991 23.9359 28.5 21.5196 28.5 19C28.5 16.4804 27.4991 14.0641 25.7175 12.2825C23.9359 10.5009 21.5196 9.5 19 9.5C16.4804 9.5 14.0641 10.5009 12.2825 12.2825C10.5009 14.0641 9.5 16.4804 9.5 19C9.5 21.5196 10.5009 23.9359 12.2825 25.7175C14.0641 27.4991 16.4804 28.5 19 28.5Z"
                  fill="#0063FF"/>
        </g>
        <path d="M19 33.5C10.992 33.5 4.5 27.008 4.5 19C4.5 10.992 10.992 4.5 19 4.5C27.008 4.5 33.5 10.992 33.5 19C33.5 27.008 27.008 33.5 19 33.5ZM19 28.5C21.5196 28.5 23.9359 27.4991 25.7175 25.7175C27.4991 23.9359 28.5 21.5196 28.5 19C28.5 16.4804 27.4991 14.0641 25.7175 12.2825C23.9359 10.5009 21.5196 9.5 19 9.5C16.4804 9.5 14.0641 10.5009 12.2825 12.2825C10.5009 14.0641 9.5 16.4804 9.5 19C9.5 21.5196 10.5009 23.9359 12.2825 25.7175C14.0641 27.4991 16.4804 28.5 19 28.5Z"
              fill="url(#paint0_linear_9_7)"/>
    </g>
    <defs>
        <filter id="SvgjsFilter1022" x="0.5" y="0.5" width="37" height="37" filterUnits="userSpaceOnUse"
                color-interpolation-filters="sRGB">
            <feFlood flood-opacity="0" result="BackgroundImageFix"/>
            <feBlend mode="normal" in="SourceGraphic" in2="BackgroundImageFix" result="shape"/>
            <feGaussianBlur stdDeviation="2" result="effect1_foregroundBlur_9_7"/>
        </filter>
        <linearGradient id="SvgjsLinearGradient1021" x1="2545.74" y1="830.217" x2="293.63" y2="2524.08"
                        gradientUnits="userSpaceOnUse">
            <stop stop-color="#F1F5F9" stop-opacity="0"/>
            <stop offset="0.624" stop-color="#0063FF"/>
        </linearGradient>
        <clipPath id="SvgjsClipPath1020">
            <rect width="38" height="38" fill="white"/>
        </clipPath>
    </defs>
</svg>